<?xml version="1.0" encoding="UTF-8"?>
<svg version="1.1" xmlns="http://www.w3.org/2000/svg" width="1024" height="1024">
<path d="M0 0 C1.03366802 0.01658124 1.03366802 0.01658124 2.08821821 0.03349745 C5.0573363 0.08139163 8.0264456 0.12980965 10.99554968 0.17856425 C56.31343993 0.91501053 101.63184552 0.90315518 146.95419106 0.88163799 C149.67800421 0.88037154 152.40181739 0.87923942 155.12563062 0.8781476 C182.23476315 0.86714667 209.34388363 0.8450574 236.45300674 0.82047462 C245.13167558 0.81261375 253.81034453 0.8048836 262.48901367 0.79736328 C263.44309882 0.79653515 264.39718397 0.79570703 265.38018079 0.79485381 C281.3534659 0.78111608 297.32675113 0.7713931 313.3000406 0.76445293 C323.05049511 0.76002439 332.80093396 0.75209763 342.55138116 0.73930812 C349.20253621 0.73081051 355.85368772 0.72597532 362.50484784 0.72388291 C366.31629405 0.72255619 370.12772 0.71966864 373.93915939 0.71212387 C388.12117249 0.68519465 402.29606702 0.73843006 416.47225952 1.19506836 C417.53709143 1.22502112 418.60192334 1.25497389 419.69902289 1.28583431 C448.02905252 2.3501283 476.34421368 13.50355577 498.70239258 30.81787109 C498.70239258 31.47787109 498.70239258 32.13787109 498.70239258 32.81787109 C499.36239258 32.81787109 500.02239258 32.81787109 500.70239258 32.81787109 C500.70239258 33.47787109 500.70239258 34.13787109 500.70239258 34.81787109 C501.38301758 35.00349609 502.06364258 35.18912109 502.76489258 35.38037109 C520.9480917 44.27853236 534.97319952 72.72231923 541.21655273 90.81005859 C546.61511593 106.92320133 546.61511593 106.92320133 547.26489258 114.69287109 C547.47283239 117.12873741 547.60353492 118.62015578 548.70239258 120.81787109 C549.02014979 124.41911954 549.2140583 128.02118804 549.42114258 131.63037109 C549.49664339 134.71209622 549.49664339 134.71209622 550.70239258 136.81787109 C550.80046721 139.7897517 550.83611425 142.73822649 550.82823372 145.71040344 C550.82968716 146.64747096 550.8311406 147.58453848 550.83263808 148.55000198 C550.83632039 151.72565195 550.83280138 154.90125459 550.82937622 158.0769043 C550.83052716 160.36234468 550.8321145 162.64778487 550.83410347 164.93322468 C550.83830054 171.24132162 550.8362044 177.54940354 550.83311725 183.85750055 C550.83061026 189.95299469 550.8337472 196.04848725 550.83626461 202.14398095 C550.84153991 215.38677775 550.84107016 228.62956973 550.8381857 241.87236699 C550.83567379 253.46110529 550.83501174 265.04984181 550.83620834 276.63858032 C550.83632292 277.7899929 550.83632292 277.7899929 550.83643981 278.96466634 C550.83675113 282.08035004 550.83706953 285.19603374 550.83739958 288.31171744 C550.84046111 317.56122598 550.8376811 346.81073144 550.83230268 376.06023951 C550.8275568 402.06766783 550.82798141 428.07509125 550.83276367 454.08251953 C550.83811403 483.27727299 550.84024402 512.47202373 550.83715141 541.66677761 C550.83683067 544.77690569 550.83651783 547.88703378 550.83620834 550.99716187 C550.83612927 551.76299938 550.83605019 552.5288369 550.83596872 553.31788162 C550.83482947 564.90158857 550.8361648 576.48529356 550.8386879 588.06900024 C550.84154134 601.23532195 550.84084478 614.40163807 550.83540715 627.56795907 C550.832722 634.29210902 550.83176554 641.01624839 550.8350563 647.74039841 C550.8380187 653.8863015 550.8364274 660.03218532 550.83107875 666.17808664 C550.82995432 668.41088732 550.83054631 670.64368961 550.83295454 672.87648928 C550.83596027 675.89279616 550.83291216 678.9090355 550.82823372 681.92533875 C550.83057489 682.8083204 550.83291605 683.69130205 550.83532816 684.60104072 C550.81654294 690.58957037 550.81654294 690.58957037 549.70239258 692.81787109 C549.49482761 695.65459228 549.32831994 698.47750946 549.20239258 701.31787109 C548.83752771 709.54760082 548.83752771 709.54760082 547.70239258 711.81787109 C547.53505275 713.15802001 547.40483992 714.50294628 547.29614258 715.84912109 C546.77670386 720.85171553 545.64199504 725.50630425 544.20239258 730.31787109 C543.94466064 731.17936768 543.68692871 732.04086426 543.42138672 732.9284668 C540.81184515 741.18784409 537.034522 748.57996984 532.71264648 756.05859375 C531.36350019 758.40802542 530.10164423 760.8022056 528.82739258 763.19287109 C527.76155056 765.17454774 526.86658508 766.6572287 525.25708008 768.23193359 C523.30764725 770.220551 522.12064592 772.42346333 520.70239258 774.81787109 C519.37954858 776.61222385 518.02459751 778.38331348 516.63989258 780.13037109 C515.60155273 781.45488281 515.60155273 781.45488281 514.54223633 782.80615234 C513.93508789 783.47001953 513.32793945 784.13388672 512.70239258 784.81787109 C512.04239258 784.81787109 511.38239258 784.81787109 510.70239258 784.81787109 C510.70239258 785.47787109 510.70239258 786.13787109 510.70239258 786.81787109 C509.16968687 788.16922613 507.57462485 789.45040996 505.95239258 790.69287109 C502.63846321 793.24130216 499.64347289 795.85154546 496.70239258 798.81787109 C495.05905754 799.85576691 493.38995391 800.85355033 491.70239258 801.81787109 C490.8284082 802.41599609 489.95442383 803.01412109 489.05395508 803.63037109 C473.27427791 814.20492964 454.69917799 822.20797402 435.70239258 823.81787109 C435.37239258 824.14787109 435.04239258 824.47787109 434.70239258 824.81787109 C433.06132016 825.02626124 431.41382965 825.18538834 429.76489258 825.31787109 C426.09681793 825.57002052 426.09681793 825.57002052 422.70239258 826.81787109 C419.62759336 826.91605691 416.57540449 826.95158221 413.50030613 826.94371223 C412.52977074 826.94516568 411.55923534 826.94661912 410.55928978 826.9481166 C407.2697816 826.9517993 403.98031909 826.94827972 400.69081116 826.94485474 C398.32358747 826.94600566 395.95636396 826.94759299 393.58914083 826.94958198 C388.42304737 826.95290046 383.2569634 826.9530778 378.0908699 826.95053482 C370.40885154 826.9467636 362.72684205 826.9486802 355.04482375 826.95174313 C341.32714301 826.95701862 327.60946692 826.95654859 313.89178574 826.95366422 C301.88685057 826.95115226 289.88191711 826.95049027 277.87698174 826.95168686 C277.08179154 826.95176324 276.28660134 826.95183963 275.46731447 826.95191833 C272.23966306 826.95222965 269.01201165 826.95254805 265.78436025 826.95287809 C235.48285024 826.95593971 205.18134319 826.95315955 174.87983364 826.9477812 C147.93925599 826.94303576 120.99868307 826.94345954 94.05810547 826.94824219 C63.81481413 826.95359316 33.57152541 826.95572215 3.32823366 826.95262992 C0.10602884 826.95230919 -3.11617599 826.95199635 -6.33838081 826.95168686 C-7.13181392 826.95160778 -7.92524703 826.9515287 -8.74272356 826.95144723 C-20.74151244 826.9503082 -32.74029944 826.95164294 -44.73908806 826.95416641 C-58.37859068 826.95702058 -72.0180879 826.95632175 -85.65758985 826.95088567 C-93.29769177 826.94794139 -100.93778203 826.94776919 -108.57788366 826.95153184 C-114.27044982 826.95402692 -119.96300381 826.95133627 -125.65556807 826.94655727 C-127.96779383 826.94543363 -130.28002115 826.9460231 -132.59224593 826.94843306 C-135.71808005 826.95144287 -138.84384919 826.94838637 -141.96967983 826.94371223 C-142.88212138 826.9460534 -143.79456293 826.94839457 -144.73465422 826.95080668 C-145.56366512 826.94830316 -146.39267602 826.94579964 -147.24680847 826.94322026 C-147.96215607 826.9431525 -148.67750368 826.94308474 -149.41452849 826.94301493 C-151.29760742 826.81787109 -151.29760742 826.81787109 -154.29760742 825.81787109 C-155.92190852 825.73927588 -157.54715858 825.67984128 -159.17260742 825.63037109 C-171.67396264 824.671071 -184.79160672 820.52603785 -195.98510742 814.94677734 C-198.28247246 813.82525962 -200.57663279 812.98205209 -202.98510742 812.13037109 C-232.34407332 800.56471786 -254.57370598 774.22269828 -267.10620117 746.09912109 C-270.46701679 738.20359566 -273.19170793 730.13438956 -275.29760742 721.81787109 C-275.55000325 720.85508794 -275.80239907 719.89230479 -276.06244326 718.9003464 C-278.84388995 706.93616944 -278.72281003 695.1406856 -278.6920166 682.90853882 C-278.69691134 680.49342364 -278.70310383 678.07831081 -278.71047449 675.66320193 C-278.72341834 670.43225203 -278.7271411 665.20138119 -278.72251511 659.97042084 C-278.71565361 652.19120671 -278.72597795 644.41207943 -278.73947266 636.63287739 C-278.7643291 621.92704242 -278.76890424 607.22124389 -278.7670067 592.51539128 C-278.76563138 581.15484431 -278.76946221 569.79430992 -278.77693176 558.43376541 C-278.77798212 556.79915313 -278.77902974 555.16454085 -278.78007463 553.52992857 C-278.78059397 552.71845698 -278.78111331 551.90698539 -278.7816484 551.07092375 C-278.78216854 550.25793087 -278.78268868 549.444938 -278.78322458 548.60730898 C-278.78374857 547.79291 -278.78427257 546.97851101 -278.78481244 546.13943326 C-278.79938768 523.24602848 -278.80768184 500.3526283 -278.80306244 477.45921898 C-278.80289048 476.59688269 -278.80271853 475.73454641 -278.80254136 474.84607872 C-278.80165253 470.47585045 -278.80070772 466.10562218 -278.79974335 461.73539393 C-278.7994568 460.43358532 -278.7994568 460.43358532 -278.79916447 459.10547755 C-278.79877737 457.35042973 -278.79838704 455.5953819 -278.79799349 453.84033407 C-278.79202563 426.54163338 -278.80745557 399.24301751 -278.83959961 371.94433594 C-278.87572131 341.24187562 -278.89500313 310.53946908 -278.8900609 279.83698618 C-278.88959096 276.55961458 -278.8891807 273.28224298 -278.8888092 270.00487137 C-278.88870682 269.19795858 -278.88860443 268.39104578 -278.88849894 267.55968109 C-278.88730687 255.40794076 -278.89923519 243.25625877 -278.91795349 231.10453415 C-278.93924802 217.27405211 -278.9429819 203.44369198 -278.9236539 189.6132044 C-278.91337197 181.88562317 -278.91668375 174.15833984 -278.94018476 166.43078591 C-278.95622036 160.64164625 -278.94575183 154.85278472 -278.92546374 149.06366952 C-278.92129865 146.73603353 -278.92540669 144.40836329 -278.93905967 142.08076362 C-279.14346577 104.65684524 -266.13644668 70.12179917 -240.29760742 42.81787109 C-239.58862305 42.05603516 -238.87963867 41.29419922 -238.14916992 40.50927734 C-228.60173016 30.56546373 -217.44581528 23.1998213 -205.29760742 16.81787109 C-204.65194824 16.47336914 -204.00628906 16.12886719 -203.34106445 15.77392578 C-192.86236175 10.25560095 -182.37562244 6.77063441 -170.78588867 4.35308838 C-169.28043444 4.02927244 -167.77924361 3.68300546 -166.28897095 3.29527283 C-157.64417797 1.21299846 -148.83809635 1.48195662 -140.00463867 1.43896484 C-138.19770507 1.42296835 -136.39077938 1.40605617 -134.5838623 1.38829041 C-129.75985838 1.34295871 -124.93583584 1.30865871 -120.11172867 1.27648163 C-112.03227047 1.21965844 -103.9529638 1.14176761 -95.87364769 1.06781006 C-92.86412078 1.04056368 -89.85458489 1.01452617 -86.845047 0.98852539 C-75.37075709 0.88632684 -63.90235378 0.71986787 -52.43104267 0.43080616 C-34.95003847 -0.00542912 -17.48609096 -0.28282151 0 0 Z " fill="#29254C" transform="translate(377.297607421875,99.18212890625)"/>
<path d="M0 0 C18.3893669 16.13040437 34.09590615 39.50056404 35.89770508 64.56518555 C35.97882855 65.97771237 36.05424812 67.39057808 36.12402344 68.80371094 C36.18499207 69.89806458 36.18499207 69.89806458 36.24719238 71.01452637 C36.34533183 72.78903292 36.43658274 74.56391828 36.52636719 76.33886719 C35.72758652 76.33807159 34.92880585 76.337276 34.1058197 76.3364563 C26.5582363 76.33424359 19.01154809 76.3607682 11.46420956 76.41914558 C7.58445721 76.44815272 3.70530688 76.46625311 -0.17456055 76.45898438 C-3.92273866 76.45237104 -7.66972928 76.47498686 -11.41766167 76.51742172 C-12.84366055 76.52851781 -14.26978039 76.52928457 -15.69578743 76.51929092 C-24.88502071 76.25915051 -24.88502071 76.25915051 -32.8425293 80.20166016 C-35.89809439 83.32514028 -36.64510129 86.35361712 -36.78613281 90.65136719 C-36.73369936 95.25053001 -35.55724888 97.82697111 -32.47363281 101.33886719 C-29.05270942 103.58148853 -26.08761499 103.61079763 -22.05273438 103.65771484 C-20.10116425 103.68751938 -20.10116425 103.68751938 -18.11016846 103.71792603 C-16.69486664 103.7298016 -15.27956302 103.74146451 -13.86425781 103.75292969 C-12.41264753 103.77164515 -10.96104809 103.79121886 -9.50946045 103.81161499 C-5.69551995 103.86290241 -1.88154419 103.90254611 1.93255615 103.9397583 C6.51237891 103.98686723 11.09202719 104.04845048 15.67170715 104.10760498 C22.62318994 104.19577599 29.57463998 104.26556929 36.52636719 104.33886719 C36.52636719 114.89886719 36.52636719 125.45886719 36.52636719 136.33886719 C29.48421875 136.36013672 29.48421875 136.36013672 22.29980469 136.38183594 C19.31926125 136.40190154 16.33887082 136.42342656 13.35839844 136.45019531 C8.63128706 136.49251272 3.90456365 136.52952556 -0.82275391 136.53442383 C-4.63566862 136.53871359 -8.44771382 136.56723062 -12.2603569 136.61229897 C-13.71229353 136.62525264 -15.16433434 136.62958915 -16.61632156 136.62502098 C-25.49290158 136.26872093 -25.49290158 136.26872093 -33.35009766 139.69555664 C-36.57565155 143.71062585 -36.82786089 147.08509042 -36.74707031 152.05371094 C-36.30832499 155.72036826 -34.95991559 157.66133189 -32.47363281 160.33886719 C-25.79632786 164.28457422 -18.79225066 163.81570225 -11.22753906 163.85058594 C-9.84747235 163.86745255 -8.46742082 163.88560544 -7.08738708 163.90498352 C-3.47568506 163.95227511 0.13595541 163.98221844 3.74786377 164.00842285 C7.44173246 164.03833437 11.1353937 164.08466922 14.82910156 164.12988281 C22.06153873 164.21721637 29.29348049 164.27733779 36.52636719 164.33886719 C36.52636719 174.23886719 36.52636719 184.13886719 36.52636719 194.33886719 C29.60990234 194.34273438 29.60990234 194.34273438 22.55371094 194.34667969 C19.62327285 194.36163674 16.69305417 194.37835135 13.76269531 194.40136719 C9.11680068 194.43769086 4.47149639 194.46768853 -0.17456055 194.45898438 C-3.92273866 194.45237104 -7.66972928 194.47498686 -11.41766167 194.51742172 C-12.84366055 194.52851781 -14.26978039 194.52928457 -15.69578743 194.51929092 C-24.86494116 194.26289775 -24.86494116 194.26289775 -32.8425293 198.13916016 C-36.04700006 201.34103569 -36.39619509 204.29345789 -36.72363281 208.71386719 C-36.44471945 212.75811096 -35.69771802 214.96439307 -33.47363281 218.33886719 C-29.59044304 221.23574681 -26.7352475 221.72467675 -21.93920898 221.77124023 C-19.98775215 221.80093147 -19.98775215 221.80093147 -17.99687195 221.83122253 C-16.58678329 221.83799133 -15.17669306 221.84443831 -13.76660156 221.85058594 C-12.31641627 221.86744062 -10.86624551 221.88559193 -9.41609192 221.90498352 C-5.61036726 221.95240449 -1.80470157 221.98226462 2.0012207 222.00842285 C5.88927858 222.03826852 9.77713348 222.08478501 13.66503906 222.12988281 C21.28538088 222.21582585 28.90573759 222.28321077 36.52636719 222.33886719 C36.6195914 234.17089081 36.69039582 246.00282516 36.73361588 257.83514309 C36.75437318 263.3310652 36.78247082 268.82673361 36.828125 274.32250977 C36.87200986 279.63937387 36.89559311 284.95599599 36.90587616 290.27302742 C36.9131918 292.28813542 36.92747414 294.30323218 36.94928741 296.3182354 C37.11660262 312.43440721 35.42410797 327.12702709 28.83886719 342.02636719 C28.49782959 342.81325928 28.15679199 343.60015137 27.80541992 344.41088867 C22.53847856 356.18173176 15.53698545 366.09318931 6.52636719 375.33886719 C5.79546875 376.12003906 5.06457031 376.90121094 4.31152344 377.70605469 C-8.92467914 391.52381274 -26.26502061 400.07907085 -44.47363281 405.33886719 C-45.64925781 405.68820312 -46.82488281 406.03753906 -48.03613281 406.39746094 C-66.64863116 411.49474742 -87.846498 411.06761002 -106.47363281 406.33886719 C-108.16359375 405.95601562 -108.16359375 405.95601562 -109.88769531 405.56542969 C-126.04237577 401.51747527 -140.4765512 393.59231587 -153.47363281 383.33886719 C-154.1890625 382.78328125 -154.90449219 382.22769531 -155.64160156 381.65527344 C-160.1115273 378.0142081 -163.84136433 373.80179998 -167.47363281 369.33886719 C-168.18648438 368.46359375 -168.89933594 367.58832031 -169.63378906 366.68652344 C-187.90021104 343.3443547 -193.02029085 317.60271158 -192.76660156 288.54980469 C-192.76098777 286.62497289 -192.75672614 284.70013673 -192.7537384 282.77529907 C-192.74242969 277.77441002 -192.71308761 272.77379356 -192.67962646 267.77301025 C-192.64861945 262.64395838 -192.63516845 257.51486131 -192.62011719 252.38574219 C-192.58820062 242.36999917 -192.53717948 232.35445608 -192.47363281 222.33886719 C-191.69990829 222.33300095 -190.92618378 222.3271347 -190.12901306 222.3210907 C-182.81705558 222.26304998 -175.50543443 222.19090887 -168.19377804 222.10315228 C-164.43527838 222.05853304 -160.676885 222.01925882 -156.91821289 221.99243164 C-153.28699979 221.96631364 -149.65619754 221.92585258 -146.02523994 221.87568092 C-144.64390763 221.85906931 -143.26250434 221.84751962 -141.88108635 221.84125328 C-131.73258666 221.92375459 -131.73258666 221.92375459 -122.47363281 218.33886719 C-119.12642991 213.69597284 -118.94802554 209.85774351 -119.47363281 204.33886719 C-121.12338835 200.62691722 -123.0388392 198.48561319 -126.47363281 196.33886719 C-129.70073561 195.26316625 -132.11020692 195.18175559 -135.50561523 195.13354492 C-136.74667526 195.1135997 -137.98773529 195.09365448 -139.2664032 195.07310486 C-140.62063472 195.05612192 -141.97486754 195.03924306 -143.32910156 195.02246094 C-144.71487541 195.00188491 -146.10064306 194.98088826 -147.48640442 194.95948792 C-151.13104234 194.90433418 -154.77573627 194.85489545 -158.42047119 194.80664062 C-162.14071622 194.75637663 -165.86088107 194.70076829 -169.58105469 194.64550781 C-176.87851924 194.53750289 -184.17602857 194.43842812 -191.47363281 194.33886719 C-191.47363281 184.43886719 -191.47363281 174.53886719 -191.47363281 164.33886719 C-187.31898438 164.31308594 -183.16433594 164.28730469 -178.88378906 164.26074219 C-175.55000674 164.22901843 -172.21631739 164.1933656 -168.88260651 164.15507507 C-165.3750877 164.1158573 -161.86781789 164.08340104 -158.36010742 164.06787109 C-154.32593321 164.04968841 -150.29267739 163.99967938 -146.25878906 163.94824219 C-144.39263695 163.94639923 -144.39263695 163.94639923 -142.48878479 163.94451904 C-134.74482567 163.81517175 -127.85734921 163.12179194 -121.79701233 157.89202881 C-119.00489755 154.6151113 -119.08749179 150.7337292 -119.11425781 146.63183594 C-119.72401643 142.74131083 -121.66198098 141.01663084 -124.47363281 138.33886719 C-127.27404992 136.93865863 -129.6266532 137.17523384 -132.75927734 137.13354492 C-133.40330505 137.12364532 -134.04733276 137.11374573 -134.71087646 137.10354614 C-136.84269517 137.07192219 -138.97453617 137.04717031 -141.10644531 137.02246094 C-142.5833291 137.00189217 -144.06020699 136.98089572 -145.53707886 136.95948792 C-149.42668892 136.9042592 -153.31635218 136.85485349 -157.20605469 136.80664062 C-161.8717176 136.74760571 -166.53728317 136.68137335 -171.2028656 136.61634064 C-178.29306195 136.51832103 -185.38332036 136.42947205 -192.47363281 136.33886719 C-192.47363281 125.77886719 -192.47363281 115.21886719 -192.47363281 104.33886719 C-185.64804687 104.30019531 -185.64804687 104.30019531 -178.68457031 104.26074219 C-175.79519169 104.23556408 -172.90591675 104.2092241 -170.01660156 104.17871094 C-165.43440407 104.13043003 -160.85244669 104.08636541 -156.27001953 104.06787109 C-152.57389103 104.05268389 -148.8783923 104.01820315 -145.18254471 103.97055817 C-143.77526968 103.95576537 -142.36790473 103.94782737 -140.96055222 103.94698334 C-138.98352251 103.94460598 -137.00658206 103.91519773 -135.02978516 103.88476562 C-133.9061557 103.87588318 -132.78252625 103.86700073 -131.62484741 103.85784912 C-126.96082113 103.0897182 -123.84438376 100.7851256 -120.62988281 97.39355469 C-118.47291052 93.56055663 -118.75685235 89.58595888 -119.47363281 85.33886719 C-121.13544311 81.9878917 -123.37552986 79.88642239 -126.75248718 78.20254517 C-129.89538102 77.20500642 -132.52758125 77.05966139 -135.82446289 77.02001953 C-137.08539261 77.00014984 -138.34632233 76.98028015 -139.64546204 76.95980835 C-141.01136093 76.94793382 -142.37726168 76.93627085 -143.74316406 76.92480469 C-145.14850489 76.90608268 -146.5538346 76.8865085 -147.95915222 76.86611938 C-151.64648875 76.81490102 -155.33386169 76.77522053 -159.0213623 76.73797607 C-162.78874643 76.6978716 -166.55598047 76.64680874 -170.32324219 76.59667969 C-177.70660257 76.50004244 -185.09003588 76.41559899 -192.47363281 76.33886719 C-192.57380736 67.81171853 -192.57380736 67.81171853 -191.77441406 63.85839844 C-191.54286621 62.71129395 -191.54286621 62.71129395 -191.30664062 61.54101562 C-191.13487305 60.75243164 -190.96310547 59.96384766 -190.78613281 59.15136719 C-190.6053418 58.31766602 -190.42455078 57.48396484 -190.23828125 56.625 C-186.43204128 39.81140506 -178.84204046 24.30244666 -167.47363281 11.33886719 C-166.58804687 10.23865234 -166.58804687 10.23865234 -165.68457031 9.11621094 C-148.46595536 -11.65603306 -121.20944593 -24.32688842 -94.67285156 -27.24707031 C-60.69128038 -30.29024456 -26.35885995 -22.58609022 0 0 Z " fill="#5949A1" transform="translate(525.4736328125,210.6611328125)"/>
<path d="M0 0 C0.95519531 -0.02900391 1.91039062 -0.05800781 2.89453125 -0.08789062 C7.24888021 -0.12725539 9.97433125 -0.13798454 13.796875 2.08203125 C17.98813604 6.86845136 18.0399715 11.00129942 18.02124023 17.2175293 C18.02646698 18.11739563 18.03169373 19.01726196 18.03707886 19.94439697 C18.04731877 21.89938807 18.05309925 23.85440642 18.05496025 25.80942345 C18.05863163 28.91879732 18.07538583 32.02785439 18.09571838 35.13716125 C18.15101351 43.97850597 18.18160287 52.8198996 18.20629883 61.66137695 C18.22232554 67.07371267 18.25271382 72.48582928 18.29106331 77.89805031 C18.3025969 79.94658869 18.30864262 81.99516657 18.30874443 84.04373741 C18.31038414 108.28724981 22.4866738 130.67799226 33.75 152.3125 C34.05276855 152.9012793 34.35553711 153.49005859 34.66748047 154.09667969 C39.68273468 163.7236314 45.82100085 172.01037602 52.75 180.3125 C53.4409375 181.158125 54.131875 182.00375 54.84375 182.875 C59.86987507 188.80747549 65.61847542 193.55912428 71.75 198.3125 C73.14025391 199.42625 73.14025391 199.42625 74.55859375 200.5625 C106.366888 225.42217095 146.25700853 234.8744862 186.125 230.625 C224.82714844 225.78215864 260.25741626 205.64610906 284.75 175.3125 C296.89195479 159.36860965 305.23933225 141.10603089 310.4375 121.8125 C310.64012451 121.06572998 310.84274902 120.31895996 311.05151367 119.54956055 C314.39416711 106.59311787 315.02562536 94.1752387 314.99382973 80.86761475 C314.98817078 77.8154189 314.99749783 74.76359375 315.0110321 71.71142578 C315.04791396 63.04408835 315.06664195 54.37688669 315.05541992 45.70947266 C315.04957345 40.38397153 315.06778976 35.05900426 315.10130882 29.73361206 C315.1092568 27.71143078 315.10799405 25.68919124 315.09728432 23.66702271 C315.08297534 20.84773245 315.09920248 18.03013396 315.12231445 15.2109375 C315.11054672 14.37971878 315.09877899 13.54850006 315.08665466 12.6920929 C315.1567195 8.33688886 315.34340132 6.80396048 318.22673035 3.31884766 C319.05940933 2.65675293 319.89208832 1.9946582 320.75 1.3125 C321.08 0.9825 321.41 0.6525 321.75 0.3125 C325.15768826 0.00506172 328.58015122 0.03406224 332 0 C332.95519531 -0.02900391 333.91039062 -0.05800781 334.89453125 -0.08789062 C341.98762152 -0.15201453 341.98762152 -0.15201453 345.859375 2.20703125 C349.49834791 6.25952381 348.91135186 10.17076934 348.92700195 15.37011719 C348.93357315 16.31042786 348.94014435 17.25073853 348.94691467 18.21954346 C348.96670673 21.34948814 348.97833514 24.47938424 348.98828125 27.609375 C348.99235678 28.68333778 348.9964323 29.75730057 349.00063133 30.86380768 C349.02153598 36.5690339 349.03580791 42.2742359 349.04516602 47.97949219 C349.05612529 53.81786822 349.09038864 59.65585192 349.13033772 65.49409103 C349.15678001 70.02435911 349.16488294 74.55453861 349.16844749 79.08487701 C349.17325767 81.23260338 349.18470781 83.38032733 349.20348549 85.52797699 C349.59873047 133.80942138 330.58723099 176.65599246 297.22729492 211.24194336 C284.49771569 224.14253517 270.60934969 234.57526822 254.75 243.3125 C253.81534912 243.83021973 253.81534912 243.83021973 252.86181641 244.35839844 C230.6173713 256.50417339 207.89984682 261.51807258 182.75 264.3125 C182.75 292.3625 182.75 320.4125 182.75 349.3125 C203.07821849 349.1545064 203.07821849 349.1545064 223.40600586 348.95214844 C225.96727836 348.94045854 228.52855832 348.93026743 231.08984375 348.921875 C232.40408325 348.90141113 233.71832275 348.88094727 235.0723877 348.85986328 C242.56349994 348.85702976 248.24316282 349.48166097 254.75 353.3125 C255.55953125 353.77011719 256.3690625 354.22773437 257.203125 354.69921875 C262.36314622 358.43462542 265.15444488 362.52783259 267.75 368.3125 C268.11867188 369.05113281 268.48734375 369.78976562 268.8671875 370.55078125 C270.0909251 374.37902231 270.04088481 377.94441677 270 381.9375 C270.00773437 382.700625 270.01546875 383.46375 270.0234375 384.25 C270.00985746 388.12031054 269.94293785 390.02309323 267.75 393.3125 C265.03078742 393.61124525 262.5383295 393.71236872 259.81628418 393.6867218 C258.98702533 393.69069621 258.15776649 393.69467061 257.30337858 393.69876546 C254.5087216 393.708434 251.71456512 393.69654303 248.91992188 393.68481445 C246.92289541 393.68724092 244.92587015 393.69095882 242.92884827 393.69587708 C237.49299092 393.70530961 232.05731288 393.69584083 226.6214695 393.68254495 C220.94356878 393.6712588 215.26567726 393.67533575 209.58776855 393.67729187 C200.05115822 393.67817575 190.51461884 393.66707491 180.97802734 393.64868164 C169.93876057 393.62751261 158.8995978 393.62400359 147.86031485 393.6302436 C137.25847081 393.63593045 126.65666356 393.63029962 116.05482483 393.61907005 C111.53491031 393.61441505 107.0150182 393.6135541 102.49510193 393.6156559 C97.17639826 393.61753407 91.85780103 393.60947134 86.53912163 393.5935955 C84.58231992 393.58933855 82.62550745 393.58851151 80.66870308 393.59128571 C78.00692228 393.5944879 75.34546349 393.58547562 72.68371582 393.57319641 C71.50970695 393.5788654 71.50970695 393.5788654 70.31198072 393.58464891 C64.97832886 393.54082886 64.97832886 393.54082886 62.75 391.3125 C62.30028877 388.29283898 62.42598453 385.23679515 62.4375 382.1875 C62.41333008 380.94226563 62.41333008 380.94226563 62.38867188 379.671875 C62.3815685 370.60797268 64.8878281 364.10237921 71.24786377 357.57192993 C80.02913829 349.64243583 89.2721349 348.45642187 100.703125 348.7265625 C101.92950684 348.73260498 103.15588867 348.73864746 104.41943359 348.74487305 C108.94663759 348.77597341 113.47335704 348.85973918 118 348.9375 C128.1475 349.06125 138.295 349.185 148.75 349.3125 C148.75 320.9325 148.75 292.5525 148.75 263.3125 C145.78 263.3125 142.81 263.3125 139.75 263.3125 C101.94486992 259.58122376 65.87819068 240.37096707 38.75 214.3125 C38.26499023 213.85858887 37.77998047 213.40467773 37.28027344 212.93701172 C7.70104789 185.18923168 -14.48143723 144.09693385 -16.35453415 103.02007484 C-16.40693808 100.47833845 -16.43069049 97.93800036 -16.44287109 95.39575195 C-16.45104858 94.43701172 -16.45922607 93.47827148 -16.46765137 92.49047852 C-16.49230138 89.34391889 -16.50895981 86.19740341 -16.5234375 83.05078125 C-16.52876118 81.97213491 -16.53408485 80.89348858 -16.53956985 79.78215599 C-16.56619991 74.08353768 -16.58561551 68.38494061 -16.60009766 62.6862793 C-16.61348386 57.97319333 -16.64143707 53.26053549 -16.68212891 48.54760742 C-16.73134824 42.84547475 -16.7562035 37.14373275 -16.76332474 31.44139671 C-16.77004518 29.27122915 -16.78528771 27.1010706 -16.80921555 24.93102455 C-16.84075192 21.90057054 -16.84092225 18.87163872 -16.83349609 15.84106445 C-16.84990143 14.94588608 -16.86630676 14.0507077 -16.88320923 13.12840271 C-16.83789846 8.61658025 -16.7251643 6.89504181 -13.77603149 3.27946472 C-12.9424411 2.63036636 -12.10885071 1.98126801 -11.25 1.3125 C-8.89232343 -1.04517657 -3.16251856 0.03149919 0 0 Z " fill="#5949A1" transform="translate(281.25,421.6875)"/>
<path d="M0 0 C9.24 0 18.48 0 28 0 C28 50.82 28 101.64 28 154 C18.76 154 9.52 154 0 154 C0 103.18 0 52.36 0 0 Z " fill="#7B67C0" transform="translate(736,583)"/>
<path d="M0 0 C6.53629856 5.25745753 6.53629856 5.25745753 7.22265625 9.421875 C7.4150722 14.40795792 6.79093802 18.13298884 3.875 22.3125 C0.14639431 25.76146026 -2.30779719 26.39064884 -7.19262695 26.3125 C-14.85994126 26.93786767 -18.54080269 31.5799022 -23.54296875 37 C-24.4918 37.98534376 -25.44346203 38.96796863 -26.39778137 39.94799805 C-28.89065804 42.51824648 -31.35487496 45.11400832 -33.81072998 47.71960449 C-37.74572587 51.89337091 -41.70453472 56.04298382 -45.6982975 60.16055298 C-47.07889433 61.59734392 -48.43588483 63.05669916 -49.7922821 64.51635742 C-56.78468303 71.78028888 -56.78468303 71.78028888 -61.45581055 72.54199219 C-64.92076136 72.32527426 -66.87045285 72.01493789 -69.8515625 70.328125 C-70.6559375 69.88726562 -71.4603125 69.44640625 -72.2890625 68.9921875 C-73.10117187 68.52039063 -73.91328125 68.04859375 -74.75 67.5625 C-76.38790601 66.65083534 -78.02592427 65.73937231 -79.6640625 64.828125 C-80.43041016 64.39467773 -81.19675781 63.96123047 -81.98632812 63.51464844 C-86.8958539 60.37749843 -86.8958539 60.37749843 -92.375 59.5625 C-93.64287979 60.10587705 -94.8912163 60.69560815 -96.125 61.3125 C-96.77210938 61.21710938 -97.41921875 61.12171875 -98.0859375 61.0234375 C-102.68629619 60.38325814 -105.23508383 60.66840397 -109.06640625 63.44140625 C-111.69377491 65.81395803 -114.16876541 68.33899336 -116.64892578 70.86376953 C-118.8008801 72.97585966 -121.13382174 74.821659 -123.5 76.6875 C-127.94086214 80.25559155 -132.10442966 84.03731818 -136.25 87.9375 C-138.01590132 89.57757019 -139.7844299 91.21473126 -141.5546875 92.85009766 C-142.9156977 94.11758073 -144.25664473 95.40654261 -145.59375 96.69921875 C-149.72952678 100.39294692 -152.71416473 101.78086596 -158.3125 102.0625 C-162.09938847 101.83094504 -164.73681467 101.42000442 -167.75 99.0625 C-171.83654346 94.33071283 -172.5776156 90.95089967 -172.44140625 84.78515625 C-171.84086735 80.09205595 -169.43490191 77.4682958 -166 74.4375 C-161.63010339 72.72754046 -157.73267656 72.29476811 -153.125 73.3125 C-150.05559856 75.29945552 -147.58545901 77.61836611 -145.125 80.3125 C-141.03824821 78.06850175 -137.88139375 75.38660837 -134.5 72.1875 C-130.51669421 68.45155818 -126.46196395 64.9068461 -122.1875 61.5 C-114.89983886 55.93158783 -114.89983886 55.93158783 -111.625 47.75 C-110.99036336 43.38687313 -109.45452929 42.08710774 -106.125 39.3125 C-102.3799792 36.81581947 -100.65761905 37.10780906 -96.3515625 37.7109375 C-92.8055331 38.66898755 -91.22078719 40.36529927 -89.125 43.3125 C-88.3125 46.625 -88.3125 46.625 -88.125 49.3125 C-87.31289063 49.54453125 -86.50078125 49.7765625 -85.6640625 50.015625 C-80.5344681 51.89534392 -75.93905993 54.64181045 -71.2265625 57.38671875 C-70.49953125 57.79019531 -69.7725 58.19367188 -69.0234375 58.609375 C-68.37036621 58.98416992 -67.71729492 59.35896484 -67.04443359 59.74511719 C-65.11557593 60.52902336 -65.11557593 60.52902336 -63.26191711 59.58073425 C-60.8485303 58.1484186 -59.03667755 56.53549266 -57.01489258 54.58813477 C-56.21759232 53.82296036 -55.42029205 53.05778595 -54.59883118 52.26942444 C-50.98686653 48.74677758 -47.3788926 45.22050316 -43.78833008 41.67602539 C-41.89306796 39.81387396 -39.98713944 37.96251467 -38.07055664 36.12231445 C-35.29958814 33.461144 -32.56322908 30.76830905 -29.83203125 28.06640625 C-28.97478958 27.25450333 -28.11754791 26.4426004 -27.23432922 25.60609436 C-22.12858199 20.46340689 -20.1583917 16.97846202 -20.1829834 9.64820862 C-20.10355672 6.44871385 -19.03785134 4.92714696 -16.8125 2.6875 C-16.21824219 2.05585938 -15.62398437 1.42421875 -15.01171875 0.7734375 C-10.49588035 -2.72329865 -4.8998887 -2.6459399 0 0 Z " fill="#7965BF" transform="translate(819.125,306.6875)"/>
<path d="M0 0 C9.24 0 18.48 0 28 0 C28 35.31 28 70.62 28 107 C18.76 107 9.52 107 0 107 C0 71.69 0 36.38 0 0 Z " fill="#7B67C0" transform="translate(685,630)"/>
<path d="M0 0 C7.128933 4.00012352 12.16730895 10.33399721 14.7578125 18.13671875 C16.40028554 27.69956181 15.13877231 35.42134682 9.6015625 43.33984375 C4.83618635 49.27994053 -1.29869 53.73751089 -8.890625 55.18359375 C-18.64380974 56.13398396 -26.47841969 54.17760189 -34.203125 48.05859375 C-39.37249933 43.22407767 -43.41700337 35.91981006 -44.12890625 28.80078125 C-44.40080514 18.75483261 -41.50252532 12.23094602 -34.6875 4.90625 C-25.10987159 -4.27578072 -11.89989811 -5.61939633 0 0 Z " fill="#E8825D" transform="translate(681.890625,250.81640625)"/>
<path d="M0 0 C5.51923537 5.14077352 9.04553409 13.03377435 9.5 20.5 C9.03280127 27.8371437 5.91450424 34.75387164 0.78125 40.01953125 C-6.80799479 46.01795357 -14.79478684 46.93627416 -24.25 46 C-29.74268601 44.37676212 -33.48604803 41.28672308 -37.25 37 C-37.971875 36.195625 -38.69375 35.39125 -39.4375 34.5625 C-43.8628922 28.30591103 -44.14159688 21.44248767 -43.25 14 C-40.77414741 5.88150662 -35.66482681 -0.00365315 -28.2734375 -4.09375 C-18.11201369 -8.4659961 -9.04308847 -5.56497752 0 0 Z " fill="#F9C35E" transform="translate(760.25,425)"/>
<path d="M0 0 C9.24 0 18.48 0 28 0 C28 21.78 28 43.56 28 66 C18.76 66 9.52 66 0 66 C0 44.22 0 22.44 0 0 Z " fill="#7B67C1" transform="translate(634,671)"/>
<path d="M0 0 C5.04663371 2.82611488 8.97669864 6.93009592 10.8125 12.4375 C11.50722361 19.48723631 11.29305749 25.6935295 6.8125 31.4375 C1.28476051 36.47528076 -3.83324963 37.92246226 -11.26171875 37.84375 C-17.65219064 36.95642146 -21.73083427 33.17839319 -25.75 28.375 C-28.28681112 23.13771252 -27.89392803 17.0743587 -27.1875 11.4375 C-24.87062577 6.3403767 -20.72446718 2.66916804 -16.1875 -0.5625 C-10.7121432 -2.38761893 -5.31037937 -2.38967072 0 0 Z " fill="#6EC1F0" transform="translate(795.1875,514.5625)"/>
<path d="M0 0 C0.89075226 0.24785751 1.78150452 0.49571503 2.69924927 0.75108337 C1.70924927 1.08108337 0.71924927 1.41108337 -0.30075073 1.75108337 C-0.96075073 1.42108337 -1.62075073 1.09108337 -2.30075073 0.75108337 C-2.68402527 1.64077065 -2.68402527 1.64077065 -3.07504272 2.5484314 C-4.42489165 4.97417015 -5.77528322 6.23806368 -7.91207886 7.99351501 C-12.34067922 11.74499729 -16.43227097 15.75491488 -20.51950073 19.87217712 C-21.26284668 20.61693802 -22.00619263 21.36169891 -22.77206421 22.12902832 C-25.11734374 24.47985083 -27.45909909 26.83414768 -29.80075073 29.18858337 C-31.40208034 30.79493536 -33.00364071 32.40105734 -34.60543823 34.00694275 C-38.50654546 37.91900322 -42.40477493 41.8339129 -46.30075073 45.75108337 C-46.96075073 45.42108337 -47.62075073 45.09108337 -48.30075073 44.75108337 C-42.5578088 38.8459622 -36.79620486 32.95997453 -31.00980949 27.09745693 C-28.3235264 24.37463889 -25.64413977 21.64569667 -22.97946167 18.90171814 C-20.40768483 16.25389151 -17.81918567 13.62352999 -15.2182045 11.00439644 C-14.22886573 10.00212173 -13.24571027 8.99370446 -12.2689476 7.97916985 C-10.90005569 6.55948577 -9.50687238 5.16334584 -8.11276245 3.76841736 C-6.93361771 2.56595619 -6.93361771 2.56595619 -5.73065186 1.33920288 C-3.30075073 -0.24891663 -3.30075073 -0.24891663 0 0 Z " fill="#1A1937" transform="translate(809.3007507324219,333.24891662597656)"/>
<path d="M0 0 C4.50727647 0.60266785 7.8587963 2.36599794 11.8125 4.5625 C12.7087207 5.0565332 12.7087207 5.0565332 13.62304688 5.56054688 C15.08533998 6.36773267 16.5431399 7.18304917 18 8 C17.01 8.495 17.01 8.495 16 9 C14.0546875 8.22265625 14.0546875 8.22265625 11.875 7.0625 C11.15054687 6.68222656 10.42609375 6.30195313 9.6796875 5.91015625 C8.84824219 5.45962891 8.84824219 5.45962891 8 5 C6.68 5.99 5.36 6.98 4 8 C3.896875 7.236875 3.79375 6.47375 3.6875 5.6875 C2.95635961 2.82940576 2.23048087 1.84257115 0 0 Z " fill="#5E4DA9" transform="translate(492,192)"/>
<path d="M0 0 C0 0.66 0 1.32 0 2 C-2.89362649 3.44681324 -5.8083009 3.43242376 -9.00390625 3.71875 C-10.99583131 3.79532012 -10.99583131 3.79532012 -12 5 C-14.33297433 5.04092937 -16.66705225 5.04241723 -19 5 C-19 4.34 -19 3.68 -19 3 C-16.58424393 2.49521515 -14.16755639 1.99602358 -11.75 1.5 C-11.06808594 1.35691406 -10.38617187 1.21382812 -9.68359375 1.06640625 C-6.35366879 0.38748951 -3.41667449 0 0 0 Z " fill="#444363" transform="translate(824,919)"/>
<path d="M0 0 C1.0730756 3.2192268 0.79946725 3.90206442 0 7 C0.33 7.66 0.66 8.32 1 9 C0.01 9.495 0.01 9.495 -1 10 C-1.68729254 12.11846285 -1.68729254 12.11846285 -2.125 14.5625 C-2.29257812 15.38878906 -2.46015625 16.21507812 -2.6328125 17.06640625 C-2.75398438 17.70449219 -2.87515625 18.34257812 -3 19 C-3.33 19 -3.66 19 -4 19 C-3.66944259 12.05829437 -3.24571282 6.20918975 0 0 Z " fill="#5F4EAC" transform="translate(339,256)"/>
<path d="M0 0 C0.66 0.33 1.32 0.66 2 1 C-1.63 4.63 -5.26 8.26 -9 12 C-9.99 11.67 -10.98 11.34 -12 11 C-8.04 7.37 -4.08 3.74 0 0 Z " fill="#201E3F" transform="translate(681,395)"/>
<path d="M0 0 C6.27 0 12.54 0 19 0 C19 0.33 19 0.66 19 1 C18.07058594 1.04898437 17.14117188 1.09796875 16.18359375 1.1484375 C6.92339067 1.69677146 6.92339067 1.69677146 -2 4 C-1.34 2.68 -0.68 1.36 0 0 Z " fill="#6251B3" transform="translate(603,422)"/>
<path d="M0 0 C2.25055832 3.37583748 2.20667458 4.18359359 1.8125 8.0625 C1.73644531 8.94035156 1.66039062 9.81820313 1.58203125 10.72265625 C1 13 1 13 -2 15 C-1.34 10.05 -0.68 5.1 0 0 Z " fill="#614FAE" transform="translate(407,296)"/>
<path d="M0 0 C0 3.19610552 -0.54671542 4.41717626 -2 7.1875 C-2.37125 7.90292969 -2.7425 8.61835937 -3.125 9.35546875 C-3.41375 9.89816406 -3.7025 10.44085937 -4 11 C-5.125 7.25 -5.125 7.25 -4 5 C-3.34 5 -2.68 5 -2 5 C-2.33 4.01 -2.66 3.02 -3 2 C-2.01 1.34 -1.02 0.68 0 0 Z " fill="#9192A1" transform="translate(913,846)"/>
<path d="M0 0 C0.33 0.66 0.66 1.32 1 2 C-0.09283577 3.03295436 -1.19970579 4.05107835 -2.3125 5.0625 C-2.92738281 5.63097656 -3.54226563 6.19945312 -4.17578125 6.78515625 C-4.77777344 7.18605469 -5.37976563 7.58695313 -6 8 C-6.99 7.67 -7.98 7.34 -9 7 C-6.03 4.69 -3.06 2.38 0 0 Z " fill="#5F4EAC" transform="translate(379,203)"/>
<path d="M0 0 C0.99 0.33 1.98 0.66 3 1 C1.35 2.65 -0.3 4.3 -2 6 C-2.99 5.67 -3.98 5.34 -5 5 C-3.35 3.35 -1.7 1.7 0 0 Z " fill="#1F1A32" transform="translate(139,140)"/>
</svg>
